<svg width="81.2mm" height="81.2mm" version="1.1" viewBox="0 0 81.2 81.2" xmlns="http://www.w3.org/2000/svg">
 <g transform="translate(-36.58 -44.26)">
  <circle cx="77.18" cy="84.86" r="40.6" fill="#f76c6c"/>
  <g fill="none" stroke="#000" stroke-linecap="round" stroke-linejoin="round">
   <path d="m51.93 76.17 9.339 12.11" stroke-opacity=".8" stroke-width="9"/>
   <path d="m68.6 63.31 9.339 12.11" stroke-opacity=".7955" stroke-width="9"/>
   <path d="m71.98 112.4c-1.532-1.754-1.161-4.568 2.324-2.17 1.891 1.301 3.144 2.691 4.947 2.849 1.825 0.1389 3.508-0.4528 5.048-1.775 1.094-0.939 1.841-1.988 2.242-3.147 0.4234-1.178 0.5134-2.36 0.2699-3.547-0.2212-1.206-0.7629-2.311-1.625-3.316-0.3066-0.3571-0.4426-0.7639-0.4078-1.22 0.03473-0.4563 0.2418-0.8474 0.6213-1.173 0.3571-0.3066 0.7639-0.4426 1.22-0.4078 0.4563 0.03473 0.8378 0.2307 1.144 0.5878 0.6707 0.7812 1.474 1.333 2.409 1.654 0.9767 0.3247 1.961 0.41 2.953 0.256 0.9923-0.154 1.879-0.5663 2.66-1.237 1.183-1.016 1.82-2.261 1.912-3.735 0.1137-1.493-0.6347-2.742-1.554-4.249-1.405-2.302 0.6235-3.451 2.377-2.041 1.33 1.069 1.818 2.704 2.119 4.229 0.3427 1.528 0.2705 3.025-0.2165 4.49-0.4455 1.468-1.282 2.729-2.51 3.783-0.7589 0.6516-1.658 1.094-2.698 1.328-1.021 0.2561-2.08 0.332-3.178 0.2276-1.075-0.1236-2.076-0.4083-3.002-0.8543 0.6425 1.426 0.9436 2.815 0.9033 4.168-0.04038 1.353-0.376 2.61-1.007 3.773-0.6085 1.143-1.415 2.145-2.419 3.008-1.473 1.265-3.097 2.038-4.871 2.321-1.732 0.2854-3.461 0.1017-5.184-0.551-1.701-0.6719-3.181-1.767-4.478-3.251z" stroke-opacity=".8" stroke-width="3.976" aria-label="3"/>
  </g>
 </g>
</svg>
