<svg width="81.2mm" height="81.2mm" version="1.1" viewBox="0 0 81.2 81.2" xmlns="http://www.w3.org/2000/svg">
 <g transform="translate(-36.58 -44.26)">
  <circle cx="77.18" cy="84.86" r="40.6" fill="#9dafaf"/>
  <path d="m76.44 101.8q-1.337 0-2.202-0.865-0.865-0.865-0.865-2.28 0-3.145 1.494-6.763 1.573-3.617 4.325-6.212 2.438-2.28 4.639-4.404t3.539-4.718q1.415-2.595 1.415-6.527 0-3.067-1.494-5.583-1.494-2.595-4.246-4.089-2.674-1.494-6.291-1.494-3.932 0-6.763 1.651-2.831 1.573-4.404 4.404-1.494 2.831-1.494 6.527 0 1.337-0.865 2.202-0.7864 0.7864-2.123 0.7864t-2.202-0.7864q-0.865-0.865-0.865-2.202 0-5.426 2.359-9.515 2.359-4.168 6.527-6.527 4.246-2.359 9.829-2.359 5.19 0 9.279 2.28 4.089 2.202 6.448 6.134 2.359 3.853 2.359 8.886 0 4.404-1.573 7.47t-4.168 5.662q-2.516 2.516-5.583 5.347-2.438 2.202-3.224 4.954t-0.7864 4.875q0 1.415-0.865 2.28-0.865 0.865-2.202 0.865zm0 13.92q-1.966 0-3.303-1.337-1.258-1.337-1.258-3.224 0-1.966 1.337-3.303 1.337-1.337 3.224-1.337t3.224 1.337q1.415 1.337 1.415 3.303 0 1.887-1.415 3.224-1.337 1.337-3.224 1.337z" fill="#1f2323" stroke="#1f2323" stroke-linecap="round" stroke-linejoin="round" stroke-width="3.5" aria-label="?"/>
 </g>
</svg>
